<svg xmlns="http://www.w3.org/2000/svg" xmlns:xlink="http://www.w3.org/1999/xlink" viewBox="0 0 471.89 112.3"><defs><style>.b2a365c8-6f8d-410d-bc21-a68a2116d2b4{fill:url(#baf15987-0004-4ccb-b618-a8a8df40386f);}.ae4ccfa8-e263-4213-99b9-ccd44b529288{fill:#fff;}</style><linearGradient id="baf15987-0004-4ccb-b618-a8a8df40386f" y1="56.15" x2="101.5" y2="56.15" gradientUnits="userSpaceOnUse"><stop offset="0" stop-color="#7159a6"/><stop offset="0.02" stop-color="#6a5eaa"/><stop offset="0.25" stop-color="#3187ca"/><stop offset="0.42" stop-color="#0ea1de"/><stop offset="0.51" stop-color="#00abe6"/><stop offset="1" stop-color="#72c593"/></linearGradient></defs><g id="bc0f4b61-b77e-4ac1-911f-3286f1204180" data-name="Layer 2"><g id="a44774e9-f46b-4768-aaf7-d05f6591f73d" data-name="Layer 1"><path class="b2a365c8-6f8d-410d-bc21-a68a2116d2b4" d="M79.39,112.3a1.23,1.23,0,0,1-.27,0,2,2,0,0,1-.76-.25,2.14,2.14,0,0,1-.39-.28L.88,57.37a2.2,2.2,0,0,1-.74-.95h0a1.83,1.83,0,0,1-.08-.25h0A2,2,0,0,1,.13,55h0L13.27,20l.05-.12h0a2.14,2.14,0,0,1,.52-.7h0a2.32,2.32,0,0,1,.3-.22h0a2.26,2.26,0,0,1,.35-.17L64,.14l.21-.07h0A1.84,1.84,0,0,1,64.67,0h0a2.14,2.14,0,0,1,.75.12h0l.12,0,34.69,15,.08,0h0a2.17,2.17,0,0,1,.88.79h0a1.71,1.71,0,0,1,.14.27h0a2.15,2.15,0,0,1,.12,1.21h0v0l-20,93.09a1.82,1.82,0,0,1-.07.25,2.14,2.14,0,0,1-.41.72,2.08,2.08,0,0,1-.59.46,2,2,0,0,1-.68.22A1.42,1.42,0,0,1,79.39,112.3ZM47.51,62.18l28.69,40L69.65,53.94ZM10.16,58.82l60.26,42.5L43,63.09Zm63.4-7.08,6.29,46.42L95.58,25Zm-55-30L45,58.67l24.09-9-6-44.11ZM5,53.94,39.7,58.46,15.8,25.1ZM67.4,6.36l5.39,39.76L96,18Z"/><path class="ae4ccfa8-e263-4213-99b9-ccd44b529288" d="M134.41,58.2a98.52,98.52,0,0,0,14.82,1.58c7.93,0,11.37-2.73,11.37-7.4,0-4.32-2.91-5.47-11.81-8.73-7.85-2.91-15.35-6.09-15.35-16.14s7.41-16.58,21.61-16.58a76.82,76.82,0,0,1,14.55,1.68l-1.41,9.61a89.28,89.28,0,0,0-13.67-1.59c-5,0-9.7,1.33-9.7,6,0,5,5.11,6.08,12.34,8.73s14.73,6.44,14.73,16.84-7.58,17.28-22.84,17.28a110.42,110.42,0,0,1-16.14-1.58Z"/><path class="ae4ccfa8-e263-4213-99b9-ccd44b529288" d="M194.46,27c10.49,0,16.4,6.44,16.4,18.08a36.32,36.32,0,0,1-.62,7H187.41c.61,5.74,3.44,8.29,8.81,8.29A37,37,0,0,0,207.42,58l2.91,8.47a37.82,37.82,0,0,1-14.46,3c-12.43,0-19.13-6.87-19.13-21.07C176.74,34.65,183,27,194.46,27Zm6.08,16.93c-.17-5.11-2.11-7.76-6.34-7.76-4.5,0-6.35,3-6.79,7.76Z"/><path class="ae4ccfa8-e263-4213-99b9-ccd44b529288" d="M219.24,27.86h7.4l.89,2.91A19.31,19.31,0,0,1,239,27c4.58,0,7.94,1.59,10.14,4.32,3.62-2.47,7.32-4.32,12.52-4.32,9,0,13.32,6.09,13.32,14.46V68.6H264.56V42.68c0-4.06-1.76-6.53-5.64-6.53a14,14,0,0,0-6.88,2,19.22,19.22,0,0,1,.26,3.26V68.6H241.9V42.68c0-4.06-1.76-6.53-5.64-6.53A14.82,14.82,0,0,0,229.64,38V68.6h-10.4Z"/><path class="ae4ccfa8-e263-4213-99b9-ccd44b529288" d="M298.24,43.65a45.11,45.11,0,0,1,6.09.44V42.68c0-4.59-1.85-6.53-7.32-6.53a60.32,60.32,0,0,0-11.2,1.41l-1.68-8.81A67.44,67.44,0,0,1,297.89,27c10.85,0,16.84,4.68,16.84,14.46V68.6h-7.4l-1.06-3.08a18.06,18.06,0,0,1-11.29,4c-7.58,0-13.93-4.49-13.93-12.87S287.13,43.65,298.24,43.65Zm-1.06,17.46a13,13,0,0,0,7.15-2.38V51.41c-1.85-.18-4.32-.35-5.73-.35-4.41,0-7,1.67-7,5.11C291.63,59.34,293.83,61.11,297.18,61.11Z"/><path class="ae4ccfa8-e263-4213-99b9-ccd44b529288" d="M323.55,27.86H331l.89,3A21.54,21.54,0,0,1,344.18,27c9.61,0,13.58,6.17,13.58,14.11V68.6h-10.4V42.41c0-4-1.59-6.26-5.91-6.26a17.72,17.72,0,0,0-7.5,1.94V68.6h-10.4Z"/><path class="ae4ccfa8-e263-4213-99b9-ccd44b529288" d="M368.08,36.51H361.9V28.75l6.62-.36.7-11.81h9.26V27.86h10.14v8.65H378.48v20c0,2.91,1,3.79,3.26,3.79a19.66,19.66,0,0,0,5.91-1.14l2.21,8.29A27.54,27.54,0,0,1,380,69.4c-7.05,0-11.9-3.71-11.9-12.26Z"/><path class="ae4ccfa8-e263-4213-99b9-ccd44b529288" d="M397.26,11.82h10.41v9.87H397.26Zm0,16h10.41V68.6H397.26Z"/><path class="ae4ccfa8-e263-4213-99b9-ccd44b529288" d="M427.86,47.79c-4-5.64-8.55-12.87-12.7-19.93h11a128,128,0,0,0,7.94,12.61h.35a145,145,0,0,0,7.94-12.61h10.67c-4.23,7.06-8.82,14.29-12.7,19.93,4,5.65,9.17,13.93,13.23,20.81H442.5c-2.38-4.23-5.56-9.26-8.29-13.49h-.36c-2.82,4.23-5.9,9.26-8.37,13.49H414.63C418.69,61.72,423.89,53.52,427.86,47.79Z"/><path class="ae4ccfa8-e263-4213-99b9-ccd44b529288" d="M464.83,30.85a7,7,0,1,1,7.06-7A7,7,0,0,1,464.83,30.85Zm0-13a6,6,0,1,0,6,6A6,6,0,0,0,464.83,17.85Zm3,10.34h-.73a.39.39,0,0,1-.31-.21l-2.12-3.35-.32-.08h-1.05v3.24a.39.39,0,0,1-.36.4h-.66a.39.39,0,0,1-.34-.4v-7.9c0-.34.16-.55.48-.57a19.4,19.4,0,0,1,2-.08c2.18,0,3.43.65,3.43,2.64V22a2.2,2.2,0,0,1-1.75,2.36l2,3.27a.57.57,0,0,1,.06.24A.3.3,0,0,1,467.81,28.19Zm-1.31-6.31c0-1.05-.6-1.41-2-1.41h-1.2V23.4l1.2,0c1.47,0,2-.39,2-1.44Z"/><path class="ae4ccfa8-e263-4213-99b9-ccd44b529288" d="M141.76,85.17H145c2.1,5.22,5,14.26,7,21.41h-2.49l-1.53-5.35h-9.17l-1.53,5.35h-2.46C136.74,99.43,139.67,90.39,141.76,85.17Zm5.55,13.93c-1.2-4-2.52-7.91-3.92-11.73h-.13c-1.4,3.82-2.73,7.77-4,11.73Z"/><path class="ae4ccfa8-e263-4213-99b9-ccd44b529288" d="M155.05,85.17h2.33v21.41h-2.33Z"/><path class="ae4ccfa8-e263-4213-99b9-ccd44b529288" d="M162.5,85.17h2.32v21.41H162.5Z"/><path class="ae4ccfa8-e263-4213-99b9-ccd44b529288" d="M182.5,97.44a25.53,25.53,0,0,1,3.4.26V96.21c0-2.53-1.4-3.26-3.56-3.26a17.94,17.94,0,0,0-4.52.7l-.47-1.93a19.4,19.4,0,0,1,5.15-.83c3.23,0,5.72,1.26,5.72,5.09v10.6h-1.83l-.23-1.37a7.74,7.74,0,0,1-4.82,1.7c-2.82,0-5.18-1.56-5.18-4.72S178.68,97.44,182.5,97.44Zm-.79,7.54a7,7,0,0,0,4.19-1.49v-4c-1.13-.1-2.5-.19-3.36-.19-2.36,0-4,.76-4,2.85C178.55,104,179.85,105,181.71,105Z"/><path class="ae4ccfa8-e263-4213-99b9-ccd44b529288" d="M193.14,85.17h2.33v7a7.66,7.66,0,0,1,4.18-1.23c3.92,0,5.92,2.63,5.92,8.08s-1.9,7.94-6.78,7.94a17.34,17.34,0,0,1-5.65-1ZM198.79,105c3.46,0,4.39-2.13,4.39-6,0-4.19-1.1-6-3.93-6a7.16,7.16,0,0,0-3.78,1.13v10.43A14.07,14.07,0,0,0,198.79,105Z"/><path class="ae4ccfa8-e263-4213-99b9-ccd44b529288" d="M215.71,90.89c4.95,0,6.87,3.26,6.87,8s-1.92,8-6.87,8-6.85-3.26-6.85-8S210.79,90.89,215.71,90.89Zm0,14c3.48,0,4.48-2.53,4.48-5.95s-1-6-4.48-6-4.46,2.53-4.46,6S212.22,104.85,215.71,104.85Z"/><path class="ae4ccfa8-e263-4213-99b9-ccd44b529288" d="M226.41,91.22h2.32v10.4c0,2.3,1.13,3.23,3,3.23a8.36,8.36,0,0,0,4.39-1.46V91.22h2.33v15.36h-1.83l-.2-1.43a8.76,8.76,0,0,1-5.09,1.76c-2.95,0-4.91-1.66-4.91-5Z"/><path class="ae4ccfa8-e263-4213-99b9-ccd44b529288" d="M244.05,93.15h-2.22V91.46l2.32-.14.17-4.58h2.06v4.48h4.39v1.93h-4.39v9.34c0,1.59.36,2.36,1.76,2.36a6.39,6.39,0,0,0,2.33-.53l.63,1.86a7.85,7.85,0,0,1-3.23.73c-2.39,0-3.82-1.23-3.82-4.29Z"/><path class="ae4ccfa8-e263-4213-99b9-ccd44b529288" d="M261,99c0-5.38,2.07-8.11,6.65-8.11a17.48,17.48,0,0,1,3.46.4V85.17h2.32v21.41h-1.82l-.24-1.27a6.85,6.85,0,0,1-4.48,1.6C263.19,106.91,261,104.48,261,99Zm10.11,4.52V93.28a15.07,15.07,0,0,0-3.26-.43c-3.36,0-4.45,2.06-4.45,6.12s1.09,5.94,3.79,5.94A6.69,6.69,0,0,0,271.14,103.52Z"/><path class="ae4ccfa8-e263-4213-99b9-ccd44b529288" d="M283.63,97.44a25.26,25.26,0,0,1,3.39.26V96.21c0-2.53-1.39-3.26-3.55-3.26a17.87,17.87,0,0,0-4.52.7l-.47-1.93a19.4,19.4,0,0,1,5.15-.83c3.23,0,5.72,1.26,5.72,5.09v10.6h-1.83l-.23-1.37a7.76,7.76,0,0,1-4.82,1.7c-2.82,0-5.18-1.56-5.18-4.72S279.81,97.44,283.63,97.44Zm-.79,7.54a7,7,0,0,0,4.18-1.49v-4c-1.13-.1-2.49-.19-3.35-.19-2.36,0-4,.76-4,2.85C279.68,104,281,105,282.84,105Z"/><path class="ae4ccfa8-e263-4213-99b9-ccd44b529288" d="M294.8,93.15h-2.23V91.46l2.33-.14.16-4.58h2.07v4.48h4.38v1.93h-4.38v9.34c0,1.59.36,2.36,1.76,2.36a6.3,6.3,0,0,0,2.32-.53l.64,1.86a7.85,7.85,0,0,1-3.23.73c-2.39,0-3.82-1.23-3.82-4.29Z"/><path class="ae4ccfa8-e263-4213-99b9-ccd44b529288" d="M310.09,97.44a25.51,25.51,0,0,1,3.39.26V96.21c0-2.53-1.4-3.26-3.56-3.26a17.94,17.94,0,0,0-4.52.7l-.46-1.93a19.34,19.34,0,0,1,5.15-.83c3.22,0,5.71,1.26,5.71,5.09v10.6H314l-.24-1.37a7.72,7.72,0,0,1-4.82,1.7c-2.82,0-5.18-1.56-5.18-4.72S306.27,97.44,310.09,97.44Zm-.8,7.54a7,7,0,0,0,4.19-1.49v-4c-1.13-.1-2.5-.19-3.36-.19-2.36,0-4,.76-4,2.85C306.13,104,307.43,105,309.29,105Z"/></g></g></svg>